<?xml version="1.0" encoding="UTF-8"?>
<svg viewBox="0 0 204.04065 141.41121" xmlns="http://www.w3.org/2000/svg">
 <defs>
  <filter id="a">
   <feGaussianBlur stdDeviation="4.32835"/>
  </filter>
 </defs>
 <g transform="translate(-368.7 -364.72)" fill-rule="evenodd" stroke="#000" stroke-width="6.8">
  <path d="m385.54 459.3c63.337-11.324 101.35-9.3799 125.16 0-4.0874 14.004-19.27 24.528-33.234 36.77 27.399-13.103 55.193-25.078 84.146-36.062-8.3363-34.826-36.765-54.136-60.811-78.489 3.5202 8.1896 8.6488 17.164 12.088 25.321 1.7246 4.0907 2.4907 7.798 1.3474 10.741-41.719-13.894-83.439-13.43-125.16-2.8284l-3.5355 44.548z" fill="#8e8e8e" filter="url(#a)"/>
  <path d="m384.11 448.58c63.337-11.324 101.35-9.3799 125.16 0-4.0874 14.004-19.27 24.528-33.234 36.77 27.399-13.103 55.193-25.078 84.146-36.062-8.3363-34.826-36.765-54.136-60.811-78.489 3.5202 8.1896 8.6488 17.164 12.088 25.321 1.7246 4.0907 2.4907 7.798 1.3474 10.741-41.719-13.894-83.439-13.43-125.16-2.8284l-3.5355 44.548z" fill="#0c3bfe"/>
 </g>
</svg>
